#!OML:ASF X:\für Bonn\!DataBase\2005_08_10_Bjorn_Final\c3d\bjorn.ASF
:FULLY-SPECIFIED
:DEGREES
140
root -0.027153 18.3748 4.08249 -172.832 -2.84892 177.735
lowerback 18.9839 1.19276 3.50127
upperback 9.9603 0.276759 -0.600604
thorax 0.163728 -0.471901 -2.66836
lowerneck -24.536 -0.854021 3.11171
upperneck 4.66527 -2.30789 -2.19182
head 5.18334 -1.43362 -1.47017
rclavicle -5.96354e-015 -2.38542e-015
rhumerus 80.3372 -5.94035 -53.2405
rradius 16.0483
rwrist 29.3124
rhand -11.1272 7.12125
rfingers 7.12502
rthumb 14.898 -22.323
lclavicle -5.96354e-015 -2.38542e-015
lhumerus 89.4068 -0.614842 65.0788
lradius 7.55102
lwrist -47.8802
lhand -20.9254 -7.34438
lfingers 7.12502
lthumb 5.44637 22.5656
rfemur -33.8172 -7.21491 15.0105
rtibia 51.0288
rfoot -23.1387 7.59344
rtoes -14.8279
lfemur -31.7249 -0.32602 -22.1524
ltibia 48.9273
lfoot -22.4899 -3.47033
ltoes -23.4351
141
root -0.0208818 18.5022 4.02322 -172.76 -2.87906 177.793
lowerback 18.2267 1.14462 3.49709
upperback 9.6541 0.314282 -0.625438
thorax 0.219022 -0.406963 -2.69444
lowerneck -24.6722 -0.90837 3.06939
upperneck 5.53817 -2.30292 -2.16068
head 5.48551 -1.39596 -1.46166
rclavicle 5.96354e-016 -7.95139e-015
rhumerus 80.274 -5.6273 -54.0431
rradius 15.7868
rwrist 29.6494
rhand -10.6942 7.00162
rfingers 7.12502
rthumb 15.3151 -22.4113
lclavicle 5.96354e-016 -7.95139e-015
lhumerus 88.8838 -0.982296 64.9385
lradius 7.71912
lwrist -48.561
lhand -20.7143 -7.013
lfingers 7.12502
lthumb 5.65017 22.8917
rfemur -32.5409 -7.3157 15.1022
rtibia 48.9547
rfoot -22.3589 7.7177
rtoes -14.4307
lfemur -30.3949 -0.246616 -22.0311
ltibia 46.759
lfoot -21.955 -3.68125
ltoes -23.3342
142
root -0.0138673 18.6212 3.96333 -172.729 -2.93127 177.844
lowerback 17.4911 1.0924 3.51236
upperback 9.36419 0.339995 -0.668483
thorax 0.284861 -0.34991 -2.74835
lowerneck -24.7303 -0.954503 3.07702
upperneck 6.32964 -2.30522 -2.15218
head 5.75045 -1.3657 -1.46761
rclavicle 2.18663e-015 -1.66979e-014
rhumerus 80.1821 -5.30585 -54.9065
rradius 15.4818
rwrist 30.1899
rhand -10.5894 6.84078
rfingers 7.12502
rthumb 15.416 -22.5644
lclavicle 2.18663e-015 -1.66979e-014
lhumerus 88.4093 -1.34679 64.7741
lradius 7.88422
lwrist -49.2987
lhand -20.4511 -6.69675
lfingers 7.12502
lthumb 5.90432 23.201
rfemur -31.2504 -7.45198 15.1804
rtibia 46.9584
rfoot -21.6315 7.88596
rtoes -14.0451
lfemur -29.0715 -0.145287 -21.9095
ltibia 44.696
lfoot -21.4851 -3.92337
ltoes -23.3016
143
root -0.00694861 18.7297 3.90272 -172.695 -2.95464 177.926
lowerback 16.7336 1.04657 3.50899
upperback 9.05336 0.372655 -0.669689
thorax 0.342587 -0.290985 -2.7479
lowerneck -24.7704 -1.00219 3.0198
upperneck 7.20691 -2.28776 -2.1354
head 6.04333 -1.32543 -1.45909
rclavicle -1.96797e-014 -1.11319e-014
rhumerus 80.1111 -4.95334 -56.1619
rradius 15.1788
rwrist 31.389
rhand -10.4751 6.69866
rfingers 7.12502
rthumb 15.5261 -22.698
lclavicle -1.96797e-014 -1.11319e-014
lhumerus 87.9381 -1.66911 64.6569
lradius 7.95792
lwrist -50.2009
lhand -20.1048 -6.52446
lfingers 7.12502
lthumb 6.23865 23.3637
rfemur -30.0341 -7.60979 15.2961
rtibia 45.0724
rfoot -20.9587 8.0383
rtoes -13.8125
lfemur -27.8316 0.0501002 -21.7655
ltibia 42.7685
lfoot -21.0968 -4.21612
ltoes -23.1632
144
root 0.000368295 18.8271 3.84342 -172.614 -2.99381 177.979
lowerback 15.9119 0.99222 3.48526
upperback 8.74191 0.387793 -0.694224
thorax 0.435384 -0.240384 -2.75706
lowerneck -24.8197 -1.0317 3.00287
upperneck 8.08186 -2.26527 -2.12008
head 6.33805 -1.28423 -1.45709
rclavicle 3.77691e-015 -9.54166e-015
rhumerus 80.0802 -4.64184 -57.8553
rradius 14.8269
rwrist 33.1138
rhand -10.4453 6.67594
rfingers 7.12502
rthumb 15.5548 -22.7185
lclavicle 3.77691e-015 -9.54166e-015
lhumerus 87.5795 -1.94248 64.5092
lradius 7.86075
lwrist -51.2904
lhand -19.3528 -6.6872
lfingers 7.12502
lthumb 6.96458 23.1782
rfemur -28.9388 -7.80066 15.3885
rtibia 43.3055
rfoot -20.3419 8.24047
rtoes -13.3895
lfemur -26.7267 0.274305 -21.6574
ltibia 40.9854
lfoot -20.8238 -4.45167
ltoes -23.4169
145
root 0.00784557 18.9098 3.78406 -172.445 -3.00882 178.051
lowerback 14.9624 0.945218 3.47004
upperback 8.41864 0.413602 -0.710441
thorax 0.587761 -0.1816 -2.76271
lowerneck -24.6511 -1.05676 2.99577
upperneck 8.71732 -2.24211 -2.13496
head 6.522 -1.25127 -1.46162
rclavicle -4.57205e-015 -5.96354e-015
rhumerus 79.931 -4.24548 -58.7106
rradius 14.5654
rwrist 33.6225
rhand -10.5821 6.48327
rfingers 7.12502
rthumb 15.4231 -22.9214
lclavicle -4.57205e-015 -5.96354e-015
lhumerus 87.1335 -2.2377 64.3715
lradius 7.91391
lwrist -52.5368
lhand -18.6031 -6.81911
lfingers 7.12502
lthumb 7.6883 23.0211
rfemur -28.0406 -8.00616 15.5147
rtibia 41.6794
rfoot -19.77 8.4918
rtoes -13.0241
lfemur -25.8224 0.597534 -21.5316
ltibia 39.3706
lfoot -20.5543 -4.8062
ltoes -23.4468
146
root 0.0155016 18.9858 3.72509 -172.235 -3.00234 178.105
lowerback 13.9702 0.916559 3.45229
upperback 8.05688 0.466859 -0.759138
thorax 0.729126 -0.107104 -2.80344
lowerneck -24.0131 -1.09308 3.03771
upperneck 8.89344 -2.25361 -2.12704
head 6.48192 -1.23864 -1.4602
rclavicle 0 -7.55382e-015
rhumerus 79.6704 -3.87028 -59.211
rradius 14.3043
rwrist 33.9452
rhand -10.6909 6.32078
rfingers 7.12502
rthumb 15.3183 -23.0919
lclavicle 0 -7.55382e-015
lhumerus 86.628 -2.62398 64.2089
lradius 8.07086
lwrist -53.8596
lhand -18.0346 -6.9281
lfingers 7.12502
lthumb 8.23689 22.8913
rfemur -27.2586 -8.20358 15.6248
rtibia 40.1832
rfoot -19.2395 8.73271
rtoes -12.6259
lfemur -25.0436 0.948997 -21.4288
ltibia 37.9045
lfoot -20.3283 -5.16525
ltoes -23.3581
147
root 0.0234663 19.053 3.6667 -172.012 -3.02506 178.171
lowerback 12.9383 0.87454 3.42169
upperback 7.71387 0.491449 -0.776852
thorax 0.914074 -0.0503246 -2.79962
lowerneck -23.3231 -1.09906 3.105
upperneck 8.95417 -2.22842 -2.18211
head 6.39517 -1.21683 -1.47748
rclavicle 1.25234e-014 3.57812e-015
rhumerus 79.57 -3.48336 -59.2689
rradius 13.8827
rwrist 33.8541
rhand -10.5259 6.27927
rfingers 7.12502
rthumb 15.4772 -23.1212
lclavicle 1.25234e-014 3.57812e-015
lhumerus 86.3086 -2.85866 64.0666
lradius 7.91919
lwrist -55.1956
lhand -17.831 -7.04235
lfingers 7.12502
lthumb 8.43344 22.7693
rfemur -26.5565 -8.45157 15.7546
rtibia 38.8177
rfoot -18.795 9.00743
rtoes -12.2961
lfemur -24.3675 1.37958 -21.3182
ltibia 36.5894
lfoot -20.1525 -5.60205
ltoes -23.3126
